<svg xmlns="http://www.w3.org/2000/svg" version="1.1" xmlns:xlink="http://www.w3.org/1999/xlink" xmlns:svgjs="http://svgjs.dev/svgjs" width="1440" height="560" preserveAspectRatio="none" viewBox="0 0 1440 560"><g mask="url(&quot;#SvgjsMask1052&quot;)" fill="none"><rect width="1440" height="560" x="0" y="0" fill="rgba(164, 184, 240, 1)"></rect><path d="M0,643.38C118.11,631.329,219.307,558.051,307.703,478.796C386.437,408.204,445.339,318.494,475.423,217.118C502.982,124.251,467.622,29.293,469.836,-67.552C472.617,-189.215,571.457,-334.171,490.095,-424.669C408.198,-515.761,248.821,-412.706,130.621,-444.855C16.245,-475.963,-62.231,-631.589,-178.054,-606.395C-291.912,-581.629,-325.111,-433.327,-384.162,-332.878C-433.073,-249.678,-482.137,-166.778,-492.874,-70.865C-503.396,23.13,-465.348,110.656,-444.132,202.828C-416.993,320.731,-436.783,460.788,-350.887,545.991C-262.928,633.241,-123.253,655.955,0,643.38" fill="#7a98e9"></path><path d="M1440 1047.05C1540.73 1057.32 1643.943 1062.4189999999999 1736.491 1021.348 1837.58 976.4870000000001 1951.464 913.626 1980.8890000000001 807.016 2010.402 700.087 1917.813 601.304 1881.339 496.545 1852.658 414.168 1831.828 333.438 1789.459 257.192 1736.9769999999999 162.74900000000002 1707.971 30.83699999999999 1604.769-1.15300000000002 1501.798-33.071000000000026 1410.801 77.91699999999997 1307.194 107.70299999999997 1202.75 137.72899999999998 1064.146 90.55799999999999 994.777 174.212 925.138 258.191 983.8969999999999 385.687 986.231 494.758 988.15 584.457 973.057 674.681 1007.26 757.626 1042.224 842.4159999999999 1103.739 913.6179999999999 1179.975 964.606 1257.118 1016.201 1347.672 1037.636 1440 1047.05" fill="#ced9f7"></path></g><defs><mask id="SvgjsMask1052"><rect width="1440" height="560" fill="#ffffff"></rect></mask></defs></svg>